# xmcd CD database file
#
# Track frame offsets:
#	150
#	18062
#	38067
#	68135
#	77695
#	94119
#	96958
#	120732
#	123659
#	157502
#	169090
#	202743
#	204590
#	236691
#	286233
#	315260
#
# Disc length: 4458 seconds
#
# Revision: 2
# Processed by: cddbd v1.5.2PL0 Copyright (c) Steve Scherf et al.
# Submitted via: CDex 1.70beta2
#
DISCID=c2116810
DTITLE=Jimmy Smith - Live - Hoyt Sherman Theater - Des Moines - 05/08/1999
DYEAR=1999
DGENRE=Jazz
TTITLE0=01-JimmySmith-HoytSherman-DesMoines-19990508
TTITLE1=02-JimmySmith-HoytSherman-DesMoines-19990508
TTITLE2=03-JimmySmith-HoytSherman-DesMoines-19990508
TTITLE3=04-JimmySmith-HoytSherman-DesMoines-19990508
TTITLE4=05-JimmySmith-HoytSherman-DesMoines-19990508
TTITLE5=06-JimmySmith-HoytSherman-DesMoines-19990508
TTITLE6=07-JimmySmith-HoytSherman-DesMoines-19990508
TTITLE7=08-JimmySmith-HoytSherman-DesMoines-19990508
TTITLE8=09-JimmySmith-HoytSherman-DesMoines-19990508
TTITLE9=10-JimmySmith-HoytSherman-DesMoines-19990508
TTITLE10=11-JimmySmith-HoytSherman-DesMoines-19990508
TTITLE11=12-JimmySmith-HoytSherman-DesMoines-19990508
TTITLE12=13-JimmySmith-HoytSherman-DesMoines-19990508
TTITLE13=14-JimmySmith-HoytSherman-DesMoines-19990508
TTITLE14=15-JimmySmith-HoytSherman-DesMoines-19990508
TTITLE15=16-JimmySmith-HoytSherman-DesMoines-19990508
EXTD=YEAR: 1999
EXTT0=
EXTT1=
EXTT2=
EXTT3=
EXTT4=
EXTT5=
EXTT6=
EXTT7=
EXTT8=
EXTT9=
EXTT10=
EXTT11=
EXTT12=
EXTT13=
EXTT14=
EXTT15=
PLAYORDER=
